<svg xmlns="http://www.w3.org/2000/svg" xmlns:xlink="http://www.w3.org/1999/xlink" viewBox="0 0 274.15 72.93"><defs><style>.cls-1{fill:#1f1f1f;}.cls-2{fill:#eb0045;}.cls-3{fill:url(#linear-gradient);}.cls-4{fill:url(#linear-gradient-2);}.cls-5{fill:#fff;}</style><linearGradient id="linear-gradient" x1="51.74" y1="59.36" x2="51.74" y2="13.57" gradientUnits="userSpaceOnUse"><stop offset="0" stop-color="#fff"/><stop offset="0.23" stop-color="#fffcfd"/><stop offset="0.36" stop-color="#fef4f7"/><stop offset="0.47" stop-color="#fde6ed"/><stop offset="0.57" stop-color="#fbd1de"/><stop offset="0.67" stop-color="#f9b7cb"/><stop offset="0.75" stop-color="#f797b3"/><stop offset="0.83" stop-color="#f47097"/><stop offset="0.91" stop-color="#f04476"/><stop offset="0.98" stop-color="#ec1252"/><stop offset="1" stop-color="#eb0045"/></linearGradient><linearGradient id="linear-gradient-2" x1="21.19" y1="59.36" x2="21.19" y2="13.57" xlink:href="#linear-gradient"/></defs><g id="Layer_2" data-name="Layer 2"><g id="Layer_1-2" data-name="Layer 1"><path class="cls-1" d="M259.57,50a14.58,14.58,0,1,1,14.58-14.58A14.6,14.6,0,0,1,259.57,50Zm0-23.15a8.58,8.58,0,1,0,8.57,8.57A8.59,8.59,0,0,0,259.57,26.81Z"/><rect class="cls-1" x="134.92" y="20.32" width="6" height="30.25"/><circle class="cls-1" cx="137.92" cy="13.37" r="3.65"/><rect class="cls-1" x="147.93" y="9.96" width="6" height="40.6"/><path class="cls-1" d="M117.48,20.82A10.61,10.61,0,0,0,109.87,24a10.59,10.59,0,0,0-14-1,6.49,6.49,0,0,0-4.19-1.95V50.53h6V31.43a4.61,4.61,0,1,1,9.22,0v19.1h6V31.43a4.62,4.62,0,0,1,9.23,0v19.1h6V31.43A10.62,10.62,0,0,0,117.48,20.82Z"/><path class="cls-1" d="M187.52,35.38h0V21a6.44,6.44,0,0,0-5.18,3.29,14.58,14.58,0,1,0-.82,22.89v3.32h6V35.39ZM172.94,44a8.58,8.58,0,1,1,8.58-8.58h0A8.59,8.59,0,0,1,172.94,44Z"/><path class="cls-1" d="M222.1,35.38h0v-8h0V21a6.46,6.46,0,0,0-5.17,3.26,14.59,14.59,0,1,0-.84,22.89v1.49a8.57,8.57,0,0,1-8.57,8.57,8.48,8.48,0,0,1-6.1-2.55,8.27,8.27,0,0,1-1.85-2.82L194,54.09a14.58,14.58,0,0,0,28.1-5.44V35.38ZM207.52,44a8.58,8.58,0,1,1,8.57-8.59v0A8.58,8.58,0,0,1,207.52,44Z"/><path class="cls-1" d="M239.25,20.81A10.59,10.59,0,0,0,232.82,23,6.4,6.4,0,0,0,228.64,21V50.51h6V31.42a4.62,4.62,0,0,1,7.17-3.84l3.34-5A10.57,10.57,0,0,0,239.25,20.81Z"/><path class="cls-2" d="M58.46,65.11,31.74,72.26A19.52,19.52,0,0,1,7.83,58.46L.67,31.74A19.52,19.52,0,0,1,14.48,7.83L41.19.67A19.53,19.53,0,0,1,65.11,14.48l7.15,26.71A19.52,19.52,0,0,1,58.46,65.11Z"/><path class="cls-3" d="M46.25,59.36a4.6,4.6,0,0,1-2.17-8.65,16.18,16.18,0,0,0,.1-28.5,4.6,4.6,0,1,1,4.39-8.08,25.38,25.38,0,0,1-.16,44.69A4.55,4.55,0,0,1,46.25,59.36Z"/><path class="cls-4" d="M26.69,59.36a4.55,4.55,0,0,1-2.16-.54,25.38,25.38,0,0,1-.16-44.69,4.6,4.6,0,0,1,4.39,8.08,16.18,16.18,0,0,0,.1,28.5,4.6,4.6,0,0,1-2.17,8.65Z"/><path class="cls-5" d="M48.57,14.13a4.62,4.62,0,0,0-3.51-.36A4.56,4.56,0,0,0,42.33,16L36.47,26.82h0L30.6,16a4.61,4.61,0,0,0-6.23-1.85A25.38,25.38,0,0,0,14.11,24.46,6.44,6.44,0,0,1,25,25h0l0,.06,0,0,7.34,13.57a4.58,4.58,0,0,0,4,2.41h0a4.58,4.58,0,0,0,4-2.41l7.35-13.57v0l0-.06h0a6.44,6.44,0,0,1,10.91-.53A25.36,25.36,0,0,0,48.57,14.13Z"/></g></g></svg>